# xmcd
#
# Track frame offsets:
#	150
#	16782
#	33612
#	44025
#	62389
#	73810
#	96820
#	111417
#	130155
#	143462
#	160622
#	171957
#	187617
#	199357
#	211110
#	224075
#	241072
#	260650
#
# Disc length: 3769 seconds
#
# Revision: 0
# Processed by: cddbd v1.5.2PL0 Copyright (c) Steve Scherf et al.
# Submitted via: EasyCDDAExtractor 16.0.6.1
#
DISCID=040eb712
DTITLE=Συλλογικός δίσκος - Ελληνική παράδοση-Χοροί της λεβεντιάς
DYEAR=2005
DGENRE=Παραδοσιακή
TTITLE0=Σιετός Γιάννης - Βελούχι μου περήφανο
TTITLE1=Βώττας Θανάσης - Ένα μικρό βλαχόπουλο
TTITLE2=Παπαδοπούλου Μαρία - Στον Τύρναβο ρίχνει βροχή
TTITLE3=Καψάλης Γιώργος - Νά 'μουν παιδί στα δεκα οκτώ
TTITLE4=Βόττα Σοφία - Στις πλαγιές και στα λειβάδια
TTITLE5=Βώττας Θανάσης - Η Ζαχαρούλα
TTITLE6=Βόττα Σοφία - Τώρα το βράδυ βράδυ
TTITLE7=Σιετός Γιάννης - Θέλω να σχίσω τα βουνά
TTITLE8=Βώττας Θανάσης - Γύρω στου χωριού τ' αλώνια
TTITLE9=Βώττας Θανάσης - Σ' ένα δεντρί στον Παρνασό
TTITLE10=Βόττα Σοφία - Λουλούδι τι μαράθηκες
TTITLE11=Καψάλης Γιώργος - Παιδιά μ' γιατί  'στε ανάλαγα
TTITLE12=Βώττας Θανάσης - Γύρισα χώρες και χωριά
TTITLE13=Παπαδοπούλου Μαρία - Φύγαν τα λαγιά πρόβατα
TTITLE14=Σιετός Γιάννης - Μπερδεύτηκε μιά λεμονιά
TTITLE15=Βώττας Θανάσης - Δυό βλαχοπούλες
TTITLE16=Σιετός Θανάσης - Εσείς βουνά της Κορυτσάς
TTITLE17=Καψάλης Γιώργος - Μιά κοκκινοφορεμένη
EXTD=
EXTT0=
EXTT1=
EXTT2=
EXTT3=
EXTT4=
EXTT5=
EXTT6=
EXTT7=
EXTT8=
EXTT9=
EXTT10=
EXTT11=
EXTT12=
EXTT13=
EXTT14=
EXTT15=
EXTT16=
EXTT17=
PLAYORDER=
